<svg width="833" height="832" viewBox="0 0 833 832" fill="none" xmlns="http://www.w3.org/2000/svg">
<rect x="495" y="130" width="52" height="52" transform="rotate(180 495 130)" fill="black"/>
<rect x="28" y="520" width="52" height="52" transform="rotate(-90 28 520)" fill="black"/>
<rect x="807" y="416" width="52" height="52" transform="rotate(90 807 416)" fill="black"/>
<rect x="547" y="806" width="52" height="52" transform="rotate(180 547 806)" fill="black"/>
<rect x="599" y="130" width="52" height="52" transform="rotate(180 599 130)" fill="black"/>
<rect x="53" y="598" width="52" height="52" transform="rotate(-90 53 598)" fill="black"/>
<rect x="807" y="312" width="52" height="52" transform="rotate(90 807 312)" fill="black"/>
<rect x="651" y="156" width="52" height="52" transform="rotate(180 651 156)" fill="black"/>
<rect x="599" y="780" width="52" height="52" transform="rotate(180 599 780)" fill="black"/>
<rect x="703" y="182" width="52" height="52" transform="rotate(180 703 182)" fill="black"/>
<rect x="703" y="650" width="52" height="52" transform="rotate(-90 703 650)" fill="black"/>
<rect x="79" y="650" width="52" height="52" transform="rotate(-90 79 650)" fill="black"/>
<rect x="651" y="754" width="52" height="52" transform="rotate(180 651 754)" fill="black"/>
<rect x="132" y="156" width="52" height="52" fill="black"/>
<rect width="52" height="52" transform="matrix(-1 0 0 1 703 156)" fill="black"/>
<rect width="52" height="52" transform="matrix(-1 0 0 1 754 78)" fill="black"/>
<rect x="79" y="78" width="52" height="52" fill="black"/>
<rect width="52" height="52" transform="matrix(-1 0 0 1 806 26)" fill="black"/>
<rect width="52" height="52" transform="matrix(-1 0 0 1 52 26)" fill="black"/>
<rect width="52" height="52" transform="matrix(-1 0 0 1 806 0)" fill="black"/>
<rect width="52" height="52" transform="matrix(-1 0 0 1 52 0)" fill="black"/>
<rect width="52" height="52" transform="matrix(-1 0 0 1 833 26)" fill="black"/>
<rect width="52" height="52" transform="matrix(-1 0 0 1 833 0)" fill="black"/>
<rect width="52" height="52" transform="matrix(-1 0 0 1 79 0)" fill="black"/>
<rect x="27" y="26" width="52" height="52" fill="black"/>
<rect x="703" y="702" width="52" height="52" transform="rotate(180 703 702)" fill="black"/>
<rect x="79" y="208" width="52" height="52" fill="black"/>
<rect width="52" height="52" transform="matrix(-1 0 0 1 755 208)" fill="black"/>
<rect x="339" y="806" width="52" height="52" transform="rotate(180 339 806)" fill="black"/>
<rect x="392" y="130" width="52" height="52" transform="rotate(180 392 130)" fill="black"/>
<rect x="28" y="416" width="52" height="52" transform="rotate(-90 28 416)" fill="black"/>
<rect x="807" y="520" width="52" height="52" transform="rotate(90 807 520)" fill="black"/>
<path d="M495 832H443V780H495V832Z" fill="black"/>
<rect x="547" y="130" width="52" height="52" transform="rotate(180 547 130)" fill="black"/>
<rect x="28" y="572" width="52" height="52" transform="rotate(-90 28 572)" fill="black"/>
<rect x="807" y="364" width="52" height="52" transform="rotate(90 807 364)" fill="black"/>
<rect x="287" y="780" width="52" height="52" transform="rotate(180 287 780)" fill="black"/>
<rect x="340" y="130" width="52" height="52" transform="rotate(180 340 130)" fill="black"/>
<rect x="288" y="130" width="52" height="52" transform="rotate(180 288 130)" fill="black"/>
<rect x="28" y="364" width="52" height="52" transform="rotate(-90 28 364)" fill="black"/>
<rect x="781" y="546" width="52" height="52" transform="rotate(90 781 546)" fill="black"/>
<rect x="391" y="832" width="52" height="52" transform="rotate(180 391 832)" fill="black"/>
<rect x="417" y="832" width="52" height="52" transform="rotate(180 417 832)" fill="black"/>
<rect x="469" y="832" width="52" height="52" transform="rotate(180 469 832)" fill="black"/>
<rect x="444" y="130" width="52" height="52" transform="rotate(180 444 130)" fill="black"/>
<rect x="28" y="468" width="52" height="52" transform="rotate(-90 28 468)" fill="black"/>
<rect x="807" y="468" width="52" height="52" transform="rotate(90 807 468)" fill="black"/>
<rect x="236" y="156" width="52" height="52" transform="rotate(180 236 156)" fill="black"/>
<rect width="52" height="52" transform="matrix(1 0 0 -1 288 416)" fill="black"/>
<rect x="546" y="416" width="52" height="52" transform="rotate(180 546 416)" fill="black"/>
<rect width="52" height="52" transform="matrix(1 0 0 -1 315 442)" fill="black"/>
<rect x="517" y="442" width="52" height="52" transform="rotate(180 517 442)" fill="black"/>
<rect width="52" height="52" transform="matrix(1 0 0 -1 315 494)" fill="black"/>
<rect x="520" y="494" width="52" height="52" transform="rotate(180 520 494)" fill="black"/>
<rect width="52" height="52" transform="matrix(1 0 0 -1 315 494)" fill="black"/>
<rect x="517" y="494" width="52" height="52" transform="rotate(180 517 494)" fill="black"/>
<rect x="418" y="663" width="52" height="52" transform="rotate(180 418 663)" fill="black"/>
<rect x="496" y="637" width="52" height="52" transform="rotate(180 496 637)" fill="black"/>
<rect x="470" y="663" width="52" height="52" transform="rotate(180 470 663)" fill="black"/>
<rect width="52" height="52" transform="matrix(1 0 0 -1 238 520)" fill="black"/>
<rect x="595" y="520" width="52" height="52" transform="rotate(180 595 520)" fill="black"/>
<rect width="52" height="52" transform="matrix(1 0 0 -1 289 520)" fill="black"/>
<rect x="543" y="520" width="52" height="52" transform="rotate(180 543 520)" fill="black"/>
<rect width="52" height="52" transform="matrix(1 0 0 -1 188 520)" fill="black"/>
<rect x="647" y="520" width="52" height="52" transform="rotate(180 647 520)" fill="black"/>
<rect width="52" height="52" transform="matrix(1 0 0 -1 132 442)" fill="black"/>
<rect x="703" y="442" width="52" height="52" transform="rotate(180 703 442)" fill="black"/>
<rect width="52" height="52" transform="matrix(1 0 0 -1 106 390)" fill="black"/>
<rect x="729" y="390" width="52" height="52" transform="rotate(180 729 390)" fill="black"/>
<rect width="52" height="52" transform="matrix(1 0 0 -1 158 390)" fill="black"/>
<rect x="677" y="390" width="52" height="52" transform="rotate(180 677 390)" fill="black"/>
<rect width="52" height="52" transform="matrix(1 0 0 -1 212 442)" fill="black"/>
<rect x="621" y="442" width="52" height="52" transform="rotate(180 621 442)" fill="black"/>
<rect width="52" height="52" transform="matrix(1 0 0 -1 162 442)" fill="black"/>
<rect x="673" y="442" width="52" height="52" transform="rotate(180 673 442)" fill="black"/>
<rect width="52" height="52" transform="matrix(1 0 0 -1 132 390)" fill="black"/>
<rect x="703" y="390" width="52" height="52" transform="rotate(180 703 390)" fill="black"/>
<rect width="52" height="52" transform="matrix(1 0 0 -1 132 416)" fill="black"/>
<rect x="703" y="416" width="52" height="52" transform="rotate(180 703 416)" fill="black"/>
<rect width="52" height="52" transform="matrix(1 0 0 -1 212 494)" fill="black"/>
<rect x="623" y="494" width="52" height="52" transform="rotate(180 623 494)" fill="black"/>
<rect width="52" height="52" transform="matrix(1 0 0 -1 162 494)" fill="black"/>
<rect x="673" y="494" width="52" height="52" transform="rotate(180 673 494)" fill="black"/>
<rect width="52" height="52" transform="matrix(1 0 0 -1 236 390)" fill="black"/>
<rect x="598" y="390" width="52" height="52" transform="rotate(180 598 390)" fill="black"/>
<rect width="52" height="52" transform="matrix(1 0 0 -1 210 390)" fill="black"/>
<rect x="625" y="390" width="52" height="52" transform="rotate(180 625 390)" fill="black"/>
<rect width="52" height="52" transform="matrix(1 0 0 -1 264 442)" fill="black"/>
<rect x="569" y="442" width="52" height="52" transform="rotate(180 569 442)" fill="black"/>
<rect width="52" height="52" transform="matrix(1 0 0 -1 264 494)" fill="black"/>
<rect x="571" y="494" width="52" height="52" transform="rotate(180 571 494)" fill="black"/>
<rect x="184" y="182" width="52" height="52" transform="rotate(180 184 182)" fill="black"/>
<rect x="755" y="312" width="52" height="52" transform="rotate(-90 755 312)" fill="black"/>
<rect x="28" y="312" width="52" height="52" transform="rotate(-90 28 312)" fill="black"/>
<rect x="235" y="754" width="52" height="52" transform="rotate(180 235 754)" fill="black"/>
<rect x="183" y="702" width="52" height="52" transform="rotate(180 183 702)" fill="black"/>
</svg>
