<svg width="883" height="832" viewBox="0 0 883 832" fill="none" xmlns="http://www.w3.org/2000/svg">
<rect x="233" y="728" width="52" height="52" fill="black"/>
<rect x="285" y="676" width="52" height="52" fill="black"/>
<rect x="233" y="676" width="52" height="52" fill="black"/>
<rect x="337" y="676" width="52" height="52" fill="black"/>
<rect x="389" y="676" width="52" height="52" fill="black"/>
<rect x="441" y="676" width="52" height="52" fill="black"/>
<rect x="493" y="676" width="52" height="52" fill="black"/>
<rect x="181" y="676" width="52" height="52" fill="black"/>
<rect x="129" y="676" width="52" height="52" fill="black"/>
<rect x="597" y="676" width="52" height="52" fill="black"/>
<rect x="649" y="676" width="52" height="52" fill="black"/>
<rect x="701" y="650" width="52" height="52" fill="black"/>
<rect x="727" y="650" width="52" height="52" fill="black"/>
<rect x="701" y="676" width="52" height="52" fill="black"/>
<rect x="753" y="598" width="52" height="52" fill="black"/>
<rect x="753" y="624" width="52" height="52" fill="black"/>
<rect x="753" y="546" width="52" height="52" fill="black"/>
<rect x="753" y="494" width="52" height="52" fill="black"/>
<rect x="805" y="546" width="52" height="52" fill="black"/>
<rect x="805" y="390" width="52" height="52" fill="black"/>
<rect x="831" y="494" width="52" height="52" fill="black"/>
<rect x="831" y="442" width="52" height="52" fill="black"/>
<rect x="753" y="442" width="52" height="52" fill="black"/>
<rect x="753" y="390" width="52" height="52" fill="black"/>
<rect x="753" y="338" width="52" height="52" fill="black"/>
<rect x="753" y="286" width="52" height="52" fill="black"/>
<rect x="753" y="234" width="52" height="52" fill="black"/>
<rect x="700" y="182" width="52" height="52" fill="black"/>
<rect x="726" y="216" width="52" height="52" fill="black"/>
<rect x="648" y="182" width="52" height="52" fill="black"/>
<rect x="129" y="650" width="52" height="52" fill="black"/>
<rect x="103" y="650" width="52" height="52" fill="black"/>
<rect x="78" y="598" width="52" height="52" fill="black"/>
<rect x="78" y="624" width="52" height="52" fill="black"/>
<rect x="78" y="546" width="52" height="52" fill="black"/>
<rect x="78" y="494" width="52" height="52" fill="black"/>
<rect x="78" y="442" width="52" height="52" fill="black"/>
<rect x="78" y="390" width="52" height="52" fill="black"/>
<rect x="78" y="338" width="52" height="52" fill="black"/>
<rect x="78" y="286" width="52" height="52" fill="black"/>
<rect x="78" y="234" width="52" height="52" fill="black"/>
<rect x="182" y="182" width="52" height="52" fill="black"/>
<rect x="130" y="182" width="52" height="52" fill="black"/>
<rect x="103" y="208" width="52" height="52" fill="black"/>
<rect x="233" y="182" width="52" height="52" fill="black"/>
<rect x="285" y="182" width="52" height="52" fill="black"/>
<rect x="337" y="182" width="52" height="52" fill="black"/>
<rect x="337" y="156" width="52" height="52" fill="black"/>
<rect x="337" y="156" width="52" height="52" fill="black"/>
<rect x="363" y="130" width="52" height="52" fill="black"/>
<rect x="415" y="130" width="52" height="52" fill="black"/>
<rect x="467" y="130" width="52" height="52" fill="black"/>
<rect x="415" y="104" width="52" height="52" fill="black"/>
<path d="M493 104H389V0H493V104Z" fill="black"/>
<rect x="493" y="156" width="52" height="52" fill="black"/>
<rect x="389" y="182" width="52" height="52" fill="black"/>
<rect x="441" y="182" width="52" height="52" fill="black"/>
<rect x="493" y="182" width="52" height="52" fill="black"/>
<rect x="545" y="182" width="52" height="52" fill="black"/>
<rect x="597" y="182" width="52" height="52" fill="black"/>
<rect x="26" y="546" width="52" height="52" fill="black"/>
<rect x="26" y="390" width="52" height="52" fill="black"/>
<rect x="259" y="390" width="52" height="52" fill="black"/>
<rect x="623" y="390" width="52" height="52" fill="black"/>
<rect x="285" y="416" width="52" height="52" fill="black"/>
<rect x="649" y="416" width="52" height="52" fill="black"/>
<rect x="285" y="468" width="52" height="52" fill="black"/>
<rect x="649" y="468" width="52" height="52" fill="black"/>
<rect x="181" y="468" width="52" height="52" fill="black"/>
<rect x="545" y="468" width="52" height="52" fill="black"/>
<rect x="207" y="494" width="52" height="52" fill="black"/>
<rect x="207" y="442" width="52" height="52" fill="black"/>
<rect x="571" y="494" width="52" height="52" fill="black"/>
<rect x="597" y="468" width="52" height="52" fill="black"/>
<rect x="259" y="494" width="52" height="52" fill="black"/>
<rect x="207" y="390" width="52" height="52" fill="black"/>
<rect x="181" y="416" width="52" height="52" fill="black"/>
<rect x="233" y="468" width="52" height="52" fill="black"/>
<rect x="571" y="390" width="52" height="52" fill="black"/>
<rect x="545" y="416" width="52" height="52" fill="black"/>
<rect x="571" y="416" width="52" height="52" fill="black"/>
<rect x="623" y="494" width="52" height="52" fill="black"/>
<rect y="494" width="52" height="52" fill="black"/>
<rect y="442" width="52" height="52" fill="black"/>
<rect x="597" y="728" width="52" height="52" fill="black"/>
<rect x="545" y="676" width="52" height="52" fill="black"/>
<rect x="285" y="780" width="52" height="52" fill="black"/>
<rect x="337" y="780" width="52" height="52" fill="black"/>
<rect x="389" y="780" width="52" height="52" fill="black"/>
<rect x="441" y="780" width="52" height="52" fill="black"/>
<rect x="493" y="780" width="52" height="52" fill="black"/>
<rect x="545" y="780" width="52" height="52" fill="black"/>
</svg>
